<svg xmlns="http://www.w3.org/2000/svg" viewBox="0 0 64 64" fill="none">
  <!-- Laurel wreath left -->
  <g fill="#DAA520" opacity="0.9">
    <ellipse cx="16" cy="30" rx="4" ry="7" transform="rotate(-30 16 30)"/>
    <ellipse cx="13" cy="36" rx="3.5" ry="6" transform="rotate(-15 13 36)"/>
    <ellipse cx="12" cy="43" rx="3" ry="5.5" transform="rotate(5 12 43)"/>
    <ellipse cx="15" cy="49" rx="3" ry="5" transform="rotate(25 15 49)"/>
  </g>
  <!-- Laurel wreath right -->
  <g fill="#DAA520" opacity="0.9">
    <ellipse cx="48" cy="30" rx="4" ry="7" transform="rotate(30 48 30)"/>
    <ellipse cx="51" cy="36" rx="3.5" ry="6" transform="rotate(15 51 36)"/>
    <ellipse cx="52" cy="43" rx="3" ry="5.5" transform="rotate(-5 52 43)"/>
    <ellipse cx="49" cy="49" rx="3" ry="5" transform="rotate(-25 49 49)"/>
  </g>
  <!-- Medal circle (gold) -->
  <circle cx="32" cy="34" r="16" fill="url(#gold1Grad)" stroke="#B8860B" stroke-width="1.5"/>
  <circle cx="32" cy="34" r="13" fill="none" stroke="#B8860B" stroke-width="0.8" opacity="0.5"/>
  <!-- Shine -->
  <ellipse cx="27" cy="28" rx="6" ry="8" fill="#FFFACD" opacity="0.2" transform="rotate(-20 27 28)"/>
  <!-- Number -->
  <text x="32" y="40" text-anchor="middle" font-family="Arial,sans-serif" font-weight="900" font-size="22" fill="#8B6914">1</text>
  <!-- Red ribbon -->
  <path d="M20 52 Q26 48 32 52 Q38 48 44 52 L44 58 Q38 54 32 58 Q26 54 20 58Z" fill="#DC2626"/>
  <path d="M20 52 Q26 48 32 52 Q38 48 44 52 L44 54 Q38 50 32 54 Q26 50 20 54Z" fill="#EF4444"/>
  <!-- Stars on ribbon -->
  <g fill="#FFD700" opacity="0.9">
    <path d="M26 54 l0.8 1.6 1.7.2-1.2 1.2.3 1.7L26 57.8l-1.6.9.3-1.7-1.2-1.2 1.7-.2z" transform="scale(0.7) translate(6 14)"/>
    <path d="M32 54 l0.8 1.6 1.7.2-1.2 1.2.3 1.7L32 57.8l-1.6.9.3-1.7-1.2-1.2 1.7-.2z" transform="scale(0.7) translate(14 14)"/>
    <path d="M38 54 l0.8 1.6 1.7.2-1.2 1.2.3 1.7L38 57.8l-1.6.9.3-1.7-1.2-1.2 1.7-.2z" transform="scale(0.7) translate(22 14)"/>
  </g>
  <!-- Sparkles -->
  <g fill="white" opacity="0.7">
    <path d="M18 20 l1 2.5-1-1.5-1 1.5z"/>
    <path d="M46 22 l1 2.5-1-1.5-1 1.5z"/>
    <path d="M32 14 l.8 2-.8-1.2-.8 1.2z"/>
  </g>
  <defs>
    <radialGradient id="gold1Grad" cx="0.4" cy="0.35" r="0.6">
      <stop offset="0%" stop-color="#FFE44D"/>
      <stop offset="60%" stop-color="#FFD700"/>
      <stop offset="100%" stop-color="#DAA520"/>
    </radialGradient>
  </defs>
</svg>
